<?xml version="1.0" standalone="no"?>
<!DOCTYPE svg PUBLIC "-//W3C//DTD SVG 20010904//EN"
 "http://www.w3.org/TR/2001/REC-SVG-20010904/DTD/svg10.dtd">
<svg version="1.0" xmlns="http://www.w3.org/2000/svg"
 width="500.000000pt" height="500.000000pt" viewBox="0 0 500.000000 500.000000"
 preserveAspectRatio="xMidYMid meet">
<metadata>
Created by potrace 1.14, written by Peter Selinger 2001-2017
</metadata>
<g transform="translate(0.000000,500.000000) scale(0.100000,-0.100000)"
fill="#000000" stroke="none">
<path d="M470 4766 l0 -73 43 -7 c98 -16 186 -101 296 -286 54 -89 926 -1695
1343 -2472 l68 -126 0 -540 c0 -719 -12 -825 -105 -917 -60 -60 -126 -79 -387
-111 l-48 -5 0 -70 0 -70 93 8 c121 10 1382 10 1515 0 l102 -8 0 70 0 70 -42
5 c-266 31 -332 50 -393 111 -53 53 -80 129 -95 276 -6 59 -10 372 -10 749 l0
647 371 734 c805 1593 798 1580 911 1720 88 109 199 198 269 217 l34 8 3 73 3
72 -123 -8 c-153 -10 -628 -10 -930 1 l-228 7 0 -69 0 -70 78 -7 c175 -14 350
-64 412 -117 35 -30 69 -86 85 -143 30 -103 7 -247 -70 -439 -18 -46 -240
-495 -492 -999 l-458 -917 -19 38 c-10 20 -266 512 -569 1092 -303 580 -559
1080 -570 1110 -29 82 -27 165 5 215 14 22 36 50 49 62 51 47 164 81 302 90
l97 6 0 74 0 74 -227 -8 c-289 -10 -836 -10 -1105 0 l-208 7 0 -74z"/>
</g>
</svg>
