<?xml version="1.0" standalone="no"?>
<!DOCTYPE svg PUBLIC "-//W3C//DTD SVG 20010904//EN"
 "http://www.w3.org/TR/2001/REC-SVG-20010904/DTD/svg10.dtd">
<svg version="1.0" xmlns="http://www.w3.org/2000/svg"
 width="500.000000pt" height="500.000000pt" viewBox="0 0 500.000000 500.000000"
 preserveAspectRatio="xMidYMid meet">
<metadata>
Created by potrace 1.14, written by Peter Selinger 2001-2017
</metadata>
<g transform="translate(0.000000,500.000000) scale(0.100000,-0.100000)"
fill="#000000" stroke="none">
<path d="M480 4310 l0 -120 189 0 c226 0 337 -16 422 -62 71 -37 25 29 634
-908 263 -404 500 -768 527 -808 l48 -73 0 -625 0 -624 -25 -38 c-13 -20 -48
-53 -77 -72 l-53 -34 -212 -10 -213 -10 0 -118 0 -118 820 0 820 0 0 119 0
120 -212 3 c-241 3 -265 10 -322 81 l-31 39 -3 721 -2 722 509 779 c280 428
524 794 543 813 18 19 58 46 88 61 l55 27 268 3 267 3 0 125 0 124 -790 0
-790 0 0 -120 0 -120 147 0 c104 0 163 -5 204 -16 62 -17 121 -60 143 -102 13
-26 3 -44 -378 -647 -215 -341 -400 -635 -412 -653 l-21 -33 -402 653 c-386
626 -401 653 -390 681 16 38 64 73 133 97 45 16 82 20 201 20 l145 0 0 120 0
120 -915 0 -915 0 0 -120z"/>
</g>
</svg>
